<?xml version="1.0" encoding="UTF-8" standalone="no"?><svg xmlns="http://www.w3.org/2000/svg" xmlns:xlink="http://www.w3.org/1999/xlink" clip-rule="evenodd" stroke-miterlimit="10" viewBox="0 0 177 50"><desc>SVG generated by Keynote</desc><defs></defs><g transform="matrix(1.00, 0.00, -0.00, -1.00, 0.0, 50.0)"><text xml:space="preserve" font-family="HelveticaNeue-Bold,Helvetica Neue" font-weight="bold" font-size="19.0" fill="#FEFFFE" transform="matrix(1.00, 0.00, -0.00, -1.00, 0.7, 33.8)">1</text><text xml:space="preserve" font-family="HelveticaNeue-Bold,Helvetica Neue" font-weight="bold" font-size="19.0" fill="#FEFFFE" transform="matrix(1.00, 0.00, -0.00, -1.00, 11.1, 33.8)"> </text><text xml:space="preserve" font-family="HelveticaNeue-Bold,Helvetica Neue" font-weight="bold" font-size="19.0" fill="#FEFFFE" transform="matrix(1.00, 0.00, -0.00, -1.00, 16.2, 33.8)">r</text><text xml:space="preserve" font-family="HelveticaNeue-Bold,Helvetica Neue" font-weight="bold" font-size="19.0" fill="#FEFFFE" transform="matrix(1.00, 0.00, -0.00, -1.00, 23.0, 33.8)">e</text><text xml:space="preserve" font-family="HelveticaNeue-Bold,Helvetica Neue" font-weight="bold" font-size="19.0" fill="#FEFFFE" transform="matrix(1.00, 0.00, -0.00, -1.00, 33.7, 33.8)">c</text><text xml:space="preserve" font-family="HelveticaNeue-Bold,Helvetica Neue" font-weight="bold" font-size="19.0" fill="#FEFFFE" transform="matrix(1.00, 0.00, -0.00, -1.00, 44.4, 33.8)">r</text><text xml:space="preserve" font-family="HelveticaNeue-Bold,Helvetica Neue" font-weight="bold" font-size="19.0" fill="#FEFFFE" transform="matrix(1.00, 0.00, -0.00, -1.00, 51.6, 33.8)">u</text><text xml:space="preserve" font-family="HelveticaNeue-Bold,Helvetica Neue" font-weight="bold" font-size="19.0" fill="#FEFFFE" transform="matrix(1.00, 0.00, -0.00, -1.00, 62.7, 33.8)">i</text><text xml:space="preserve" font-family="HelveticaNeue-Bold,Helvetica Neue" font-weight="bold" font-size="19.0" fill="#FEFFFE" transform="matrix(1.00, 0.00, -0.00, -1.00, 67.4, 33.8)">t</text><text xml:space="preserve" font-family="HelveticaNeue-Bold,Helvetica Neue" font-weight="bold" font-size="19.0" fill="#FEFFFE" transform="matrix(1.00, 0.00, -0.00, -1.00, 73.9, 33.8)">e</text><text xml:space="preserve" font-family="HelveticaNeue-Bold,Helvetica Neue" font-weight="bold" font-size="19.0" fill="#FEFFFE" transform="matrix(1.00, 0.00, -0.00, -1.00, 84.7, 33.8)">r</text><text xml:space="preserve" font-family="HelveticaNeue-Bold,Helvetica Neue" font-weight="bold" font-size="19.0" fill="#FEFFFE" transform="matrix(1.00, 0.00, -0.00, -1.00, 91.9, 33.8)"> </text><text xml:space="preserve" font-family="HelveticaNeue-Bold,Helvetica Neue" font-weight="bold" font-size="19.0" fill="#FEFFFE" transform="matrix(1.00, 0.00, -0.00, -1.00, 0.7, 5.1)">1</text><text xml:space="preserve" font-family="HelveticaNeue-Bold,Helvetica Neue" font-weight="bold" font-size="19.0" fill="#FEFFFE" transform="matrix(1.00, 0.00, -0.00, -1.00, 11.1, 5.1)"> </text><text xml:space="preserve" font-family="HelveticaNeue-Bold,Helvetica Neue" font-weight="bold" font-size="19.0" fill="#FEFFFE" transform="matrix(1.00, 0.00, -0.00, -1.00, 16.2, 5.1)">H</text><text xml:space="preserve" font-family="HelveticaNeue-Bold,Helvetica Neue" font-weight="bold" font-size="19.0" fill="#FEFFFE" transform="matrix(1.00, 0.00, -0.00, -1.00, 30.0, 5.1)">a</text><text xml:space="preserve" font-family="HelveticaNeue-Bold,Helvetica Neue" font-weight="bold" font-size="19.0" fill="#FEFFFE" transform="matrix(1.00, 0.00, -0.00, -1.00, 40.8, 5.1)">p</text><text xml:space="preserve" font-family="HelveticaNeue-Bold,Helvetica Neue" font-weight="bold" font-size="19.0" fill="#FEFFFE" transform="matrix(1.00, 0.00, -0.00, -1.00, 52.2, 5.1)">p</text><text xml:space="preserve" font-family="HelveticaNeue-Bold,Helvetica Neue" font-weight="bold" font-size="19.0" fill="#FEFFFE" transform="matrix(1.00, 0.00, -0.00, -1.00, 63.6, 5.1)">i</text><text xml:space="preserve" font-family="HelveticaNeue-Bold,Helvetica Neue" font-weight="bold" font-size="19.0" fill="#FEFFFE" transform="matrix(1.00, 0.00, -0.00, -1.00, 68.3, 5.1)">n</text><text xml:space="preserve" font-family="HelveticaNeue-Bold,Helvetica Neue" font-weight="bold" font-size="19.0" fill="#FEFFFE" transform="matrix(1.00, 0.00, -0.00, -1.00, 79.4, 5.1)">e</text><text xml:space="preserve" font-family="HelveticaNeue-Bold,Helvetica Neue" font-weight="bold" font-size="19.0" fill="#FEFFFE" transform="matrix(1.00, 0.00, -0.00, -1.00, 90.1, 5.1)">s</text><text xml:space="preserve" font-family="HelveticaNeue-Bold,Helvetica Neue" font-weight="bold" font-size="19.0" fill="#FEFFFE" transform="matrix(1.00, 0.00, -0.00, -1.00, 100.1, 5.1)">s</text><text xml:space="preserve" font-family="HelveticaNeue-Bold,Helvetica Neue" font-weight="bold" font-size="19.0" fill="#FEFFFE" transform="matrix(1.00, 0.00, -0.00, -1.00, 110.1, 5.1)"> </text><text xml:space="preserve" font-family="HelveticaNeue-Bold,Helvetica Neue" font-weight="bold" font-size="19.0" fill="#FEFFFE" transform="matrix(1.00, 0.00, -0.00, -1.00, 115.2, 5.1)">O</text><text xml:space="preserve" font-family="HelveticaNeue-Bold,Helvetica Neue" font-weight="bold" font-size="19.0" fill="#FEFFFE" transform="matrix(1.00, 0.00, -0.00, -1.00, 129.8, 5.1)">f</text><text xml:space="preserve" font-family="HelveticaNeue-Bold,Helvetica Neue" font-weight="bold" font-size="19.0" fill="#FEFFFE" transform="matrix(1.00, 0.00, -0.00, -1.00, 135.6, 5.1)">f</text><text xml:space="preserve" font-family="HelveticaNeue-Bold,Helvetica Neue" font-weight="bold" font-size="19.0" fill="#FEFFFE" transform="matrix(1.00, 0.00, -0.00, -1.00, 141.7, 5.1)">i</text><text xml:space="preserve" font-family="HelveticaNeue-Bold,Helvetica Neue" font-weight="bold" font-size="19.0" fill="#FEFFFE" transform="matrix(1.00, 0.00, -0.00, -1.00, 146.5, 5.1)">c</text><text xml:space="preserve" font-family="HelveticaNeue-Bold,Helvetica Neue" font-weight="bold" font-size="19.0" fill="#FEFFFE" transform="matrix(1.00, 0.00, -0.00, -1.00, 157.2, 5.1)">e</text><text xml:space="preserve" font-family="HelveticaNeue-Bold,Helvetica Neue" font-weight="bold" font-size="19.0" fill="#FEFFFE" transform="matrix(1.00, 0.00, -0.00, -1.00, 167.9, 5.1)">r</text></g></svg>