<?xml version="1.0" encoding="UTF-8" standalone="no"?><svg xmlns="http://www.w3.org/2000/svg" xmlns:xlink="http://www.w3.org/1999/xlink" clip-rule="evenodd" stroke-miterlimit="10" viewBox="0 0 1920 1080"><desc>SVG generated by Keynote</desc><defs></defs><g transform="matrix(1.00, 0.00, -0.00, -1.00, 0.0, 1080.0)"><path d="M 0.0 1080.0 L 1920.0 1080.0 L 1920.0 0.0 L 0.0 0.0 Z M 0.0 1080.0 " fill="#FEFFFF"></path><image xlink:href="CB21AD0AA0842C55A4EB9933809B9651.png" width="940.00" height="540.00" transform="matrix(0.36, 0.00, -0.00, -0.36, 790.0, 1031.0)"></image><text xml:space="preserve" font-family="HelveticaNeue-Thin,Helvetica Neue" font-size="95.0" fill="#00172C" transform="matrix(1.00, 0.00, -0.00, -1.00, 764.6, 711.0)">T</text><text xml:space="preserve" font-family="HelveticaNeue-Thin,Helvetica Neue" font-size="95.0" fill="#00172C" transform="matrix(1.00, 0.00, -0.00, -1.00, 812.9, 711.0)">h</text><text xml:space="preserve" font-family="HelveticaNeue-Thin,Helvetica Neue" font-size="95.0" fill="#00172C" transform="matrix(1.00, 0.00, -0.00, -1.00, 861.3, 711.0)">a</text><text xml:space="preserve" font-family="HelveticaNeue-Thin,Helvetica Neue" font-size="95.0" fill="#00172C" transform="matrix(1.00, 0.00, -0.00, -1.00, 907.8, 711.0)">n</text><text xml:space="preserve" font-family="HelveticaNeue-Thin,Helvetica Neue" font-size="95.0" fill="#00172C" transform="matrix(1.00, 0.00, -0.00, -1.00, 956.2, 711.0)">k</text><text xml:space="preserve" font-family="HelveticaNeue-Thin,Helvetica Neue" font-size="95.0" fill="#00172C" transform="matrix(1.00, 0.00, -0.00, -1.00, 999.2, 711.0)"> </text><text xml:space="preserve" font-family="HelveticaNeue-Thin,Helvetica Neue" font-size="95.0" fill="#00172C" transform="matrix(1.00, 0.00, -0.00, -1.00, 1024.7, 711.0)">y</text><text xml:space="preserve" font-family="HelveticaNeue-Thin,Helvetica Neue" font-size="95.0" fill="#00172C" transform="matrix(1.00, 0.00, -0.00, -1.00, 1065.9, 711.0)">o</text><text xml:space="preserve" font-family="HelveticaNeue-Thin,Helvetica Neue" font-size="95.0" fill="#00172C" transform="matrix(1.00, 0.00, -0.00, -1.00, 1116.0, 711.0)">u</text><text xml:space="preserve" font-family="HelveticaNeue-Thin,Helvetica Neue" font-size="95.0" fill="#00172C" transform="matrix(1.00, 0.00, -0.00, -1.00, 1164.3, 711.0)">.</text><text xml:space="preserve" font-family="HelveticaNeue-Thin,Helvetica Neue" font-size="95.0" fill="#00172C" transform="matrix(1.00, 0.00, -0.00, -1.00, 1189.8, 711.0)"> </text><text xml:space="preserve" font-family="HelveticaNeue-Thin,Helvetica Neue" font-size="95.0" fill="#00172C" transform="matrix(1.00, 0.00, -0.00, -1.00, 1215.3, 711.0)"> </text><text xml:space="preserve" font-family="HelveticaNeue-Thin,Helvetica Neue" font-size="70.0" fill="#52575F" transform="matrix(1.00, 0.00, -0.00, -1.00, 460.6, 597.5)">N</text><text xml:space="preserve" font-family="HelveticaNeue-Thin,Helvetica Neue" font-size="70.0" fill="#52575F" transform="matrix(1.00, 0.00, -0.00, -1.00, 507.4, 597.5)">o</text><text xml:space="preserve" font-family="HelveticaNeue-Thin,Helvetica Neue" font-size="70.0" fill="#52575F" transform="matrix(1.00, 0.00, -0.00, -1.00, 544.3, 597.5)">w</text><text xml:space="preserve" font-family="HelveticaNeue-Thin,Helvetica Neue" font-size="70.0" fill="#52575F" transform="matrix(1.00, 0.00, -0.00, -1.00, 592.8, 597.5)"> </text><text xml:space="preserve" font-family="HelveticaNeue-Thin,Helvetica Neue" font-size="70.0" fill="#52575F" transform="matrix(1.00, 0.00, -0.00, -1.00, 611.6, 597.5)">g</text><text xml:space="preserve" font-family="HelveticaNeue-Thin,Helvetica Neue" font-size="70.0" fill="#52575F" transform="matrix(1.00, 0.00, -0.00, -1.00, 648.5, 597.5)">o</text><text xml:space="preserve" font-family="HelveticaNeue-Thin,Helvetica Neue" font-size="70.0" fill="#52575F" transform="matrix(1.00, 0.00, -0.00, -1.00, 685.4, 597.5)"> </text><text xml:space="preserve" font-family="HelveticaNeue-Thin,Helvetica Neue" font-size="70.0" fill="#52575F" transform="matrix(1.00, 0.00, -0.00, -1.00, 704.1, 597.5)">f</text><text xml:space="preserve" font-family="HelveticaNeue-Thin,Helvetica Neue" font-size="70.0" fill="#52575F" transform="matrix(1.00, 0.00, -0.00, -1.00, 720.3, 597.5)">o</text><text xml:space="preserve" font-family="HelveticaNeue-Thin,Helvetica Neue" font-size="70.0" fill="#52575F" transform="matrix(1.00, 0.00, -0.00, -1.00, 757.2, 597.5)">r</text><text xml:space="preserve" font-family="HelveticaNeue-Thin,Helvetica Neue" font-size="70.0" fill="#52575F" transform="matrix(1.00, 0.00, -0.00, -1.00, 777.8, 597.5)">t</text><text xml:space="preserve" font-family="HelveticaNeue-Thin,Helvetica Neue" font-size="70.0" fill="#52575F" transform="matrix(1.00, 0.00, -0.00, -1.00, 795.2, 597.5)">h</text><text xml:space="preserve" font-family="HelveticaNeue-Thin,Helvetica Neue" font-size="70.0" fill="#52575F" transform="matrix(1.00, 0.00, -0.00, -1.00, 830.8, 597.5)"> </text><text xml:space="preserve" font-family="HelveticaNeue-Thin,Helvetica Neue" font-size="70.0" fill="#52575F" transform="matrix(1.00, 0.00, -0.00, -1.00, 849.6, 597.5)">&amp;</text><text xml:space="preserve" font-family="HelveticaNeue-Thin,Helvetica Neue" font-size="70.0" fill="#52575F" transform="matrix(1.00, 0.00, -0.00, -1.00, 890.4, 597.5)"> </text><text xml:space="preserve" font-family="HelveticaNeue-Thin,Helvetica Neue" font-size="70.0" fill="#52575F" transform="matrix(1.00, 0.00, -0.00, -1.00, 909.2, 597.5)">p</text><text xml:space="preserve" font-family="HelveticaNeue-Thin,Helvetica Neue" font-size="70.0" fill="#52575F" transform="matrix(1.00, 0.00, -0.00, -1.00, 947.4, 597.5)">l</text><text xml:space="preserve" font-family="HelveticaNeue-Thin,Helvetica Neue" font-size="70.0" fill="#52575F" transform="matrix(1.00, 0.00, -0.00, -1.00, 958.5, 597.5)">a</text><text xml:space="preserve" font-family="HelveticaNeue-Thin,Helvetica Neue" font-size="70.0" fill="#52575F" transform="matrix(1.00, 0.00, -0.00, -1.00, 992.8, 597.5)">y</text><text xml:space="preserve" font-family="HelveticaNeue-Thin,Helvetica Neue" font-size="70.0" fill="#52575F" transform="matrix(1.00, 0.00, -0.00, -1.00, 1023.1, 597.5)"> </text><text xml:space="preserve" font-family="HelveticaNeue-Thin,Helvetica Neue" font-size="70.0" fill="#52575F" transform="matrix(1.00, 0.00, -0.00, -1.00, 1041.9, 597.5)">f</text><text xml:space="preserve" font-family="HelveticaNeue-Thin,Helvetica Neue" font-size="70.0" fill="#52575F" transform="matrix(1.00, 0.00, -0.00, -1.00, 1058.1, 597.5)">o</text><text xml:space="preserve" font-family="HelveticaNeue-Thin,Helvetica Neue" font-size="70.0" fill="#52575F" transform="matrix(1.00, 0.00, -0.00, -1.00, 1095.0, 597.5)">r</text><text xml:space="preserve" font-family="HelveticaNeue-Thin,Helvetica Neue" font-size="70.0" fill="#52575F" transform="matrix(1.00, 0.00, -0.00, -1.00, 1113.7, 597.5)">m</text><text xml:space="preserve" font-family="HelveticaNeue-Thin,Helvetica Neue" font-size="70.0" fill="#52575F" transform="matrix(1.00, 0.00, -0.00, -1.00, 1168.7, 597.5)"> </text><text xml:space="preserve" font-family="HelveticaNeue-Thin,Helvetica Neue" font-size="70.0" fill="#52575F" transform="matrix(1.00, 0.00, -0.00, -1.00, 1187.5, 597.5)">i</text><text xml:space="preserve" font-family="HelveticaNeue-Thin,Helvetica Neue" font-size="70.0" fill="#52575F" transform="matrix(1.00, 0.00, -0.00, -1.00, 1198.6, 597.5)">n</text><text xml:space="preserve" font-family="HelveticaNeue-Thin,Helvetica Neue" font-size="70.0" fill="#52575F" transform="matrix(1.00, 0.00, -0.00, -1.00, 1234.2, 597.5)">v</text><text xml:space="preserve" font-family="HelveticaNeue-Thin,Helvetica Neue" font-size="70.0" fill="#52575F" transform="matrix(1.00, 0.00, -0.00, -1.00, 1264.6, 597.5)">a</text><text xml:space="preserve" font-family="HelveticaNeue-Thin,Helvetica Neue" font-size="70.0" fill="#52575F" transform="matrix(1.00, 0.00, -0.00, -1.00, 1298.9, 597.5)">d</text><text xml:space="preserve" font-family="HelveticaNeue-Thin,Helvetica Neue" font-size="70.0" fill="#52575F" transform="matrix(1.00, 0.00, -0.00, -1.00, 1337.1, 597.5)">e</text><text xml:space="preserve" font-family="HelveticaNeue-Thin,Helvetica Neue" font-size="70.0" fill="#52575F" transform="matrix(1.00, 0.00, -0.00, -1.00, 1372.7, 597.5)">r</text><text xml:space="preserve" font-family="HelveticaNeue-Thin,Helvetica Neue" font-size="70.0" fill="#52575F" transform="matrix(1.00, 0.00, -0.00, -1.00, 1391.5, 597.5)">s</text><text xml:space="preserve" font-family="HelveticaNeue-Thin,Helvetica Neue" font-size="70.0" fill="#52575F" transform="matrix(1.00, 0.00, -0.00, -1.00, 1424.4, 597.5)">…</text><image xlink:href="6C60BBCC252002D728F11D0FA2A133DD.png" width="284.00" height="221.00" transform="matrix(1.69, 0.00, -0.00, -1.69, 737.0, 519.0)"></image><path d="M -2.0 1080.0 L 58.0 1080.0 L 58.0 1012.0 L -2.0 1012.0 Z M -2.0 1080.0 " fill="#FEFFFF"></path><text xml:space="preserve" font-family="HelveticaNeue-Medium,Helvetica Neue" font-size="30.0" fill="#000000" transform="matrix(1.00, 0.00, -0.00, -1.00, 12.3, 1034.4)">2</text><text xml:space="preserve" font-family="HelveticaNeue-Medium,Helvetica Neue" font-size="30.0" fill="#000000" transform="matrix(1.00, 0.00, -0.00, -1.00, 29.0, 1034.4)">1</text></g></svg>