<?xml version="1.0" encoding="UTF-8" standalone="no"?><svg xmlns="http://www.w3.org/2000/svg" xmlns:xlink="http://www.w3.org/1999/xlink" clip-rule="evenodd" stroke-miterlimit="10" viewBox="0 0 172 165"><desc>SVG generated by Keynote</desc><defs></defs><g transform="matrix(1.00, 0.00, -0.00, -1.00, 0.0, 165.0)"><text xml:space="preserve" font-family="HelveticaNeue-Bold,Helvetica Neue" font-weight="bold" font-size="24.0" fill="#00172C" transform="matrix(1.00, 0.00, -0.00, -1.00, 1.1, 145.7)">3</text><text xml:space="preserve" font-family="HelveticaNeue-Bold,Helvetica Neue" font-weight="bold" font-size="24.0" fill="#00172C" transform="matrix(1.00, 0.00, -0.00, -1.00, 14.2, 145.7)"> </text><text xml:space="preserve" font-family="HelveticaNeue-Bold,Helvetica Neue" font-weight="bold" font-size="24.0" fill="#00172C" transform="matrix(1.00, 0.00, -0.00, -1.00, 20.6, 145.7)">m</text><text xml:space="preserve" font-family="HelveticaNeue-Bold,Helvetica Neue" font-weight="bold" font-size="24.0" fill="#00172C" transform="matrix(1.00, 0.00, -0.00, -1.00, 42.1, 145.7)">a</text><text xml:space="preserve" font-family="HelveticaNeue-Bold,Helvetica Neue" font-weight="bold" font-size="24.0" fill="#00172C" transform="matrix(1.00, 0.00, -0.00, -1.00, 55.7, 145.7)">r</text><text xml:space="preserve" font-family="HelveticaNeue-Bold,Helvetica Neue" font-weight="bold" font-size="24.0" fill="#00172C" transform="matrix(1.00, 0.00, -0.00, -1.00, 64.8, 145.7)">k</text><text xml:space="preserve" font-family="HelveticaNeue-Bold,Helvetica Neue" font-weight="bold" font-size="24.0" fill="#00172C" transform="matrix(1.00, 0.00, -0.00, -1.00, 78.3, 145.7)">e</text><text xml:space="preserve" font-family="HelveticaNeue-Bold,Helvetica Neue" font-weight="bold" font-size="24.0" fill="#00172C" transform="matrix(1.00, 0.00, -0.00, -1.00, 91.8, 145.7)">t</text><text xml:space="preserve" font-family="HelveticaNeue-Bold,Helvetica Neue" font-weight="bold" font-size="24.0" fill="#00172C" transform="matrix(1.00, 0.00, -0.00, -1.00, 100.1, 145.7)">e</text><text xml:space="preserve" font-family="HelveticaNeue-Bold,Helvetica Neue" font-weight="bold" font-size="24.0" fill="#00172C" transform="matrix(1.00, 0.00, -0.00, -1.00, 113.6, 145.7)">e</text><text xml:space="preserve" font-family="HelveticaNeue-Bold,Helvetica Neue" font-weight="bold" font-size="24.0" fill="#00172C" transform="matrix(1.00, 0.00, -0.00, -1.00, 127.1, 145.7)">r</text><text xml:space="preserve" font-family="HelveticaNeue-Bold,Helvetica Neue" font-weight="bold" font-size="24.0" fill="#00172C" transform="matrix(1.00, 0.00, -0.00, -1.00, 136.2, 145.7)">s</text><text xml:space="preserve" font-family="HelveticaNeue-Bold,Helvetica Neue" font-weight="bold" font-size="24.0" fill="#00172C" transform="matrix(1.00, 0.00, -0.00, -1.00, 148.9, 145.7)"> </text><text xml:space="preserve" font-family="HelveticaNeue-Bold,Helvetica Neue" font-weight="bold" font-size="24.0" fill="#00172C" transform="matrix(1.00, 0.00, -0.00, -1.00, 1.1, 111.1)">1</text><text xml:space="preserve" font-family="HelveticaNeue-Bold,Helvetica Neue" font-weight="bold" font-size="24.0" fill="#00172C" transform="matrix(1.00, 0.00, -0.00, -1.00, 14.2, 111.1)"> </text><text xml:space="preserve" font-family="HelveticaNeue-Bold,Helvetica Neue" font-weight="bold" font-size="24.0" fill="#00172C" transform="matrix(1.00, 0.00, -0.00, -1.00, 20.6, 111.1)">d</text><text xml:space="preserve" font-family="HelveticaNeue-Bold,Helvetica Neue" font-weight="bold" font-size="24.0" fill="#00172C" transform="matrix(1.00, 0.00, -0.00, -1.00, 35.1, 111.1)">e</text><text xml:space="preserve" font-family="HelveticaNeue-Bold,Helvetica Neue" font-weight="bold" font-size="24.0" fill="#00172C" transform="matrix(1.00, 0.00, -0.00, -1.00, 48.6, 111.1)">s</text><text xml:space="preserve" font-family="HelveticaNeue-Bold,Helvetica Neue" font-weight="bold" font-size="24.0" fill="#00172C" transform="matrix(1.00, 0.00, -0.00, -1.00, 61.2, 111.1)">i</text><text xml:space="preserve" font-family="HelveticaNeue-Bold,Helvetica Neue" font-weight="bold" font-size="24.0" fill="#00172C" transform="matrix(1.00, 0.00, -0.00, -1.00, 67.2, 111.1)">g</text><text xml:space="preserve" font-family="HelveticaNeue-Bold,Helvetica Neue" font-weight="bold" font-size="24.0" fill="#00172C" transform="matrix(1.00, 0.00, -0.00, -1.00, 81.6, 111.1)">n</text><text xml:space="preserve" font-family="HelveticaNeue-Bold,Helvetica Neue" font-weight="bold" font-size="24.0" fill="#00172C" transform="matrix(1.00, 0.00, -0.00, -1.00, 95.6, 111.1)">e</text><text xml:space="preserve" font-family="HelveticaNeue-Bold,Helvetica Neue" font-weight="bold" font-size="24.0" fill="#00172C" transform="matrix(1.00, 0.00, -0.00, -1.00, 109.1, 111.1)">r</text><text xml:space="preserve" font-family="HelveticaNeue-Bold,Helvetica Neue" font-weight="bold" font-size="24.0" fill="#00172C" transform="matrix(1.00, 0.00, -0.00, -1.00, 118.2, 111.1)"> </text><text xml:space="preserve" font-family="HelveticaNeue-Bold,Helvetica Neue" font-weight="bold" font-size="24.0" fill="#00172C" transform="matrix(1.00, 0.00, -0.00, -1.00, 1.1, 76.4)">4</text><text xml:space="preserve" font-family="HelveticaNeue-Bold,Helvetica Neue" font-weight="bold" font-size="24.0" fill="#00172C" transform="matrix(1.00, 0.00, -0.00, -1.00, 14.2, 76.4)"> </text><text xml:space="preserve" font-family="HelveticaNeue-Bold,Helvetica Neue" font-weight="bold" font-size="24.0" fill="#00172C" transform="matrix(1.00, 0.00, -0.00, -1.00, 20.6, 76.4)">e</text><text xml:space="preserve" font-family="HelveticaNeue-Bold,Helvetica Neue" font-weight="bold" font-size="24.0" fill="#00172C" transform="matrix(1.00, 0.00, -0.00, -1.00, 34.2, 76.4)">n</text><text xml:space="preserve" font-family="HelveticaNeue-Bold,Helvetica Neue" font-weight="bold" font-size="24.0" fill="#00172C" transform="matrix(1.00, 0.00, -0.00, -1.00, 48.2, 76.4)">g</text><text xml:space="preserve" font-family="HelveticaNeue-Bold,Helvetica Neue" font-weight="bold" font-size="24.0" fill="#00172C" transform="matrix(1.00, 0.00, -0.00, -1.00, 62.6, 76.4)">i</text><text xml:space="preserve" font-family="HelveticaNeue-Bold,Helvetica Neue" font-weight="bold" font-size="24.0" fill="#00172C" transform="matrix(1.00, 0.00, -0.00, -1.00, 68.5, 76.4)">n</text><text xml:space="preserve" font-family="HelveticaNeue-Bold,Helvetica Neue" font-weight="bold" font-size="24.0" fill="#00172C" transform="matrix(1.00, 0.00, -0.00, -1.00, 82.5, 76.4)">e</text><text xml:space="preserve" font-family="HelveticaNeue-Bold,Helvetica Neue" font-weight="bold" font-size="24.0" fill="#00172C" transform="matrix(1.00, 0.00, -0.00, -1.00, 96.1, 76.4)">e</text><text xml:space="preserve" font-family="HelveticaNeue-Bold,Helvetica Neue" font-weight="bold" font-size="24.0" fill="#00172C" transform="matrix(1.00, 0.00, -0.00, -1.00, 109.6, 76.4)">r</text><text xml:space="preserve" font-family="HelveticaNeue-Bold,Helvetica Neue" font-weight="bold" font-size="24.0" fill="#00172C" transform="matrix(1.00, 0.00, -0.00, -1.00, 118.7, 76.4)">s</text><text xml:space="preserve" font-family="HelveticaNeue-Bold,Helvetica Neue" font-weight="bold" font-size="24.0" fill="#00172C" transform="matrix(1.00, 0.00, -0.00, -1.00, 131.3, 76.4)"> </text><text xml:space="preserve" font-family="HelveticaNeue-Bold,Helvetica Neue" font-weight="bold" font-size="24.0" fill="#00172C" transform="matrix(1.00, 0.00, -0.00, -1.00, 1.1, 41.7)">1</text><text xml:space="preserve" font-family="HelveticaNeue-Bold,Helvetica Neue" font-weight="bold" font-size="24.0" fill="#00172C" transform="matrix(1.00, 0.00, -0.00, -1.00, 14.2, 41.7)"> </text><text xml:space="preserve" font-family="HelveticaNeue-Bold,Helvetica Neue" font-weight="bold" font-size="24.0" fill="#00172C" transform="matrix(1.00, 0.00, -0.00, -1.00, 20.6, 41.7)">v</text><text xml:space="preserve" font-family="HelveticaNeue-Bold,Helvetica Neue" font-weight="bold" font-size="24.0" fill="#00172C" transform="matrix(1.00, 0.00, -0.00, -1.00, 32.9, 41.7)">i</text><text xml:space="preserve" font-family="HelveticaNeue-Bold,Helvetica Neue" font-weight="bold" font-size="24.0" fill="#00172C" transform="matrix(1.00, 0.00, -0.00, -1.00, 38.8, 41.7)">d</text><text xml:space="preserve" font-family="HelveticaNeue-Bold,Helvetica Neue" font-weight="bold" font-size="24.0" fill="#00172C" transform="matrix(1.00, 0.00, -0.00, -1.00, 53.3, 41.7)">e</text><text xml:space="preserve" font-family="HelveticaNeue-Bold,Helvetica Neue" font-weight="bold" font-size="24.0" fill="#00172C" transform="matrix(1.00, 0.00, -0.00, -1.00, 66.8, 41.7)">o</text><text xml:space="preserve" font-family="HelveticaNeue-Bold,Helvetica Neue" font-weight="bold" font-size="24.0" fill="#00172C" transform="matrix(1.00, 0.00, -0.00, -1.00, 81.2, 41.7)">g</text><text xml:space="preserve" font-family="HelveticaNeue-Bold,Helvetica Neue" font-weight="bold" font-size="24.0" fill="#00172C" transform="matrix(1.00, 0.00, -0.00, -1.00, 95.6, 41.7)">r</text><text xml:space="preserve" font-family="HelveticaNeue-Bold,Helvetica Neue" font-weight="bold" font-size="24.0" fill="#00172C" transform="matrix(1.00, 0.00, -0.00, -1.00, 104.7, 41.7)">a</text><text xml:space="preserve" font-family="HelveticaNeue-Bold,Helvetica Neue" font-weight="bold" font-size="24.0" fill="#00172C" transform="matrix(1.00, 0.00, -0.00, -1.00, 118.3, 41.7)">p</text><text xml:space="preserve" font-family="HelveticaNeue-Bold,Helvetica Neue" font-weight="bold" font-size="24.0" fill="#00172C" transform="matrix(1.00, 0.00, -0.00, -1.00, 132.7, 41.7)">h</text><text xml:space="preserve" font-family="HelveticaNeue-Bold,Helvetica Neue" font-weight="bold" font-size="24.0" fill="#00172C" transform="matrix(1.00, 0.00, -0.00, -1.00, 146.7, 41.7)">e</text><text xml:space="preserve" font-family="HelveticaNeue-Bold,Helvetica Neue" font-weight="bold" font-size="24.0" fill="#00172C" transform="matrix(1.00, 0.00, -0.00, -1.00, 160.2, 41.7)">r</text><text xml:space="preserve" font-family="HelveticaNeue-Bold,Helvetica Neue" font-weight="bold" font-size="24.0" fill="#00172C" transform="matrix(1.00, 0.00, -0.00, -1.00, 169.3, 41.7)"> </text><text xml:space="preserve" font-family="HelveticaNeue-Bold,Helvetica Neue" font-weight="bold" font-size="24.0" fill="#00172C" transform="matrix(1.00, 0.00, -0.00, -1.00, 1.1, 7.1)">1</text><text xml:space="preserve" font-family="HelveticaNeue-Bold,Helvetica Neue" font-weight="bold" font-size="24.0" fill="#00172C" transform="matrix(1.00, 0.00, -0.00, -1.00, 14.2, 7.1)"> </text><text xml:space="preserve" font-family="HelveticaNeue-Bold,Helvetica Neue" font-weight="bold" font-size="24.0" fill="#00172C" transform="matrix(1.00, 0.00, -0.00, -1.00, 20.6, 7.1)">c</text><text xml:space="preserve" font-family="HelveticaNeue-Bold,Helvetica Neue" font-weight="bold" font-size="24.0" fill="#00172C" transform="matrix(1.00, 0.00, -0.00, -1.00, 34.2, 7.1)">o</text><text xml:space="preserve" font-family="HelveticaNeue-Bold,Helvetica Neue" font-weight="bold" font-size="24.0" fill="#00172C" transform="matrix(1.00, 0.00, -0.00, -1.00, 48.6, 7.1)">p</text><text xml:space="preserve" font-family="HelveticaNeue-Bold,Helvetica Neue" font-weight="bold" font-size="24.0" fill="#00172C" transform="matrix(1.00, 0.00, -0.00, -1.00, 63.0, 7.1)">y</text><text xml:space="preserve" font-family="HelveticaNeue-Bold,Helvetica Neue" font-weight="bold" font-size="24.0" fill="#00172C" transform="matrix(1.00, 0.00, -0.00, -1.00, 75.2, 7.1)">w</text><text xml:space="preserve" font-family="HelveticaNeue-Bold,Helvetica Neue" font-weight="bold" font-size="24.0" fill="#00172C" transform="matrix(1.00, 0.00, -0.00, -1.00, 94.5, 7.1)">r</text><text xml:space="preserve" font-family="HelveticaNeue-Bold,Helvetica Neue" font-weight="bold" font-size="24.0" fill="#00172C" transform="matrix(1.00, 0.00, -0.00, -1.00, 103.6, 7.1)">i</text><text xml:space="preserve" font-family="HelveticaNeue-Bold,Helvetica Neue" font-weight="bold" font-size="24.0" fill="#00172C" transform="matrix(1.00, 0.00, -0.00, -1.00, 109.6, 7.1)">t</text><text xml:space="preserve" font-family="HelveticaNeue-Bold,Helvetica Neue" font-weight="bold" font-size="24.0" fill="#00172C" transform="matrix(1.00, 0.00, -0.00, -1.00, 117.8, 7.1)">e</text><text xml:space="preserve" font-family="HelveticaNeue-Bold,Helvetica Neue" font-weight="bold" font-size="24.0" fill="#00172C" transform="matrix(1.00, 0.00, -0.00, -1.00, 131.3, 7.1)">r</text></g></svg>