<?xml version="1.0" encoding="UTF-8" standalone="no"?><svg xmlns="http://www.w3.org/2000/svg" xmlns:xlink="http://www.w3.org/1999/xlink" clip-rule="evenodd" stroke-miterlimit="10" viewBox="0 0 357 39"><desc>SVG generated by Keynote</desc><defs></defs><g transform="matrix(1.00, 0.00, -0.00, -1.00, 0.0, 39.0)"><text xml:space="preserve" font-family="HelveticaNeue-Light,Helvetica Neue" font-size="48.0" fill="#FEFFFE" transform="matrix(1.00, 0.00, -0.00, -1.00, 1.3, 3.6)"> </text><text xml:space="preserve" font-family="HelveticaNeue-Light,Helvetica Neue" font-size="48.0" fill="#FEFFFE" transform="matrix(1.00, 0.00, -0.00, -1.00, 14.2, 3.6)">1</text><text xml:space="preserve" font-family="HelveticaNeue-Light,Helvetica Neue" font-size="48.0" fill="#FEFFFE" transform="matrix(1.00, 0.00, -0.00, -1.00, 40.4, 3.6)">6</text><text xml:space="preserve" font-family="HelveticaNeue-Light,Helvetica Neue" font-size="48.0" fill="#FEFFFE" transform="matrix(1.00, 0.00, -0.00, -1.00, 66.6, 3.6)"> </text><text xml:space="preserve" font-family="HelveticaNeue-Light,Helvetica Neue" font-size="48.0" fill="#FEFFFE" transform="matrix(1.00, 0.00, -0.00, -1.00, 79.5, 3.6)">n</text><text xml:space="preserve" font-family="HelveticaNeue-Light,Helvetica Neue" font-size="48.0" fill="#FEFFFE" transform="matrix(1.00, 0.00, -0.00, -1.00, 104.8, 3.6)">a</text><text xml:space="preserve" font-family="HelveticaNeue-Light,Helvetica Neue" font-size="48.0" fill="#FEFFFE" transform="matrix(1.00, 0.00, -0.00, -1.00, 129.2, 3.6)">t</text><text xml:space="preserve" font-family="HelveticaNeue-Light,Helvetica Neue" font-size="48.0" fill="#FEFFFE" transform="matrix(1.00, 0.00, -0.00, -1.00, 142.9, 3.6)">i</text><text xml:space="preserve" font-family="HelveticaNeue-Light,Helvetica Neue" font-size="48.0" fill="#FEFFFE" transform="matrix(1.00, 0.00, -0.00, -1.00, 151.3, 3.6)">o</text><text xml:space="preserve" font-family="HelveticaNeue-Light,Helvetica Neue" font-size="48.0" fill="#FEFFFE" transform="matrix(1.00, 0.00, -0.00, -1.00, 177.6, 3.6)">n</text><text xml:space="preserve" font-family="HelveticaNeue-Light,Helvetica Neue" font-size="48.0" fill="#FEFFFE" transform="matrix(1.00, 0.00, -0.00, -1.00, 202.9, 3.6)">a</text><text xml:space="preserve" font-family="HelveticaNeue-Light,Helvetica Neue" font-size="48.0" fill="#FEFFFE" transform="matrix(1.00, 0.00, -0.00, -1.00, 227.3, 3.6)">l</text><text xml:space="preserve" font-family="HelveticaNeue-Light,Helvetica Neue" font-size="48.0" fill="#FEFFFE" transform="matrix(1.00, 0.00, -0.00, -1.00, 235.7, 3.6)">i</text><text xml:space="preserve" font-family="HelveticaNeue-Light,Helvetica Neue" font-size="48.0" fill="#FEFFFE" transform="matrix(1.00, 0.00, -0.00, -1.00, 244.1, 3.6)">t</text><text xml:space="preserve" font-family="HelveticaNeue-Light,Helvetica Neue" font-size="48.0" fill="#FEFFFE" transform="matrix(1.00, 0.00, -0.00, -1.00, 257.8, 3.6)">i</text><text xml:space="preserve" font-family="HelveticaNeue-Light,Helvetica Neue" font-size="48.0" fill="#FEFFFE" transform="matrix(1.00, 0.00, -0.00, -1.00, 266.2, 3.6)">e</text><text xml:space="preserve" font-family="HelveticaNeue-Light,Helvetica Neue" font-size="48.0" fill="#FEFFFE" transform="matrix(1.00, 0.00, -0.00, -1.00, 290.6, 3.6)">s</text><text xml:space="preserve" font-family="HelveticaNeue-Light,Helvetica Neue" font-size="48.0" fill="#FEFFFE" transform="matrix(1.00, 0.00, -0.00, -1.00, 313.3, 3.6)">…</text></g></svg>