<?xml version="1.0" encoding="UTF-8" standalone="no"?><svg xmlns="http://www.w3.org/2000/svg" xmlns:xlink="http://www.w3.org/1999/xlink" clip-rule="evenodd" stroke-miterlimit="10" viewBox="0 0 282 39"><desc>SVG generated by Keynote</desc><defs></defs><g transform="matrix(1.00, 0.00, -0.00, -1.00, 0.0, 39.0)"><text xml:space="preserve" font-family="HelveticaNeue-Light,Helvetica Neue" font-size="38.0" fill="#A6AAA8" transform="matrix(1.00, 0.00, -0.00, -1.00, 2.9, 9.3)">V</text><text xml:space="preserve" font-family="HelveticaNeue-Light,Helvetica Neue" font-size="38.0" fill="#A6AAA8" transform="matrix(1.00, 0.00, -0.00, -1.00, 25.7, 9.3)">i</text><text xml:space="preserve" font-family="HelveticaNeue-Light,Helvetica Neue" font-size="38.0" fill="#A6AAA8" transform="matrix(1.00, 0.00, -0.00, -1.00, 32.7, 9.3)">e</text><text xml:space="preserve" font-family="HelveticaNeue-Light,Helvetica Neue" font-size="38.0" fill="#A6AAA8" transform="matrix(1.00, 0.00, -0.00, -1.00, 52.4, 9.3)">w</text><text xml:space="preserve" font-family="HelveticaNeue-Light,Helvetica Neue" font-size="38.0" fill="#A6AAA8" transform="matrix(1.00, 0.00, -0.00, -1.00, 80.6, 9.3)"> </text><text xml:space="preserve" font-family="HelveticaNeue-Light,Helvetica Neue" font-size="38.0" fill="#A6AAA8" transform="matrix(1.00, 0.00, -0.00, -1.00, 91.1, 9.3)">e</text><text xml:space="preserve" font-family="HelveticaNeue-Light,Helvetica Neue" font-size="38.0" fill="#A6AAA8" transform="matrix(1.00, 0.00, -0.00, -1.00, 110.8, 9.3)">x</text><text xml:space="preserve" font-family="HelveticaNeue-Light,Helvetica Neue" font-size="38.0" fill="#A6AAA8" transform="matrix(1.00, 0.00, -0.00, -1.00, 129.1, 9.3)">a</text><text xml:space="preserve" font-family="HelveticaNeue-Light,Helvetica Neue" font-size="38.0" fill="#A6AAA8" transform="matrix(1.00, 0.00, -0.00, -1.00, 148.8, 9.3)">m</text><text xml:space="preserve" font-family="HelveticaNeue-Light,Helvetica Neue" font-size="38.0" fill="#A6AAA8" transform="matrix(1.00, 0.00, -0.00, -1.00, 180.5, 9.3)">p</text><text xml:space="preserve" font-family="HelveticaNeue-Light,Helvetica Neue" font-size="38.0" fill="#A6AAA8" transform="matrix(1.00, 0.00, -0.00, -1.00, 202.3, 9.3)">l</text><text xml:space="preserve" font-family="HelveticaNeue-Light,Helvetica Neue" font-size="38.0" fill="#A6AAA8" transform="matrix(1.00, 0.00, -0.00, -1.00, 209.3, 9.3)">e</text><text xml:space="preserve" font-family="HelveticaNeue-Light,Helvetica Neue" font-size="38.0" fill="#A6AAA8" transform="matrix(1.00, 0.00, -0.00, -1.00, 229.1, 9.3)">s</text><text xml:space="preserve" font-family="HelveticaNeue-Light,Helvetica Neue" font-size="38.0" fill="#A6AAA8" transform="matrix(1.00, 0.00, -0.00, -1.00, 247.3, 9.3)">…</text></g></svg>