<?xml version="1.0" encoding="UTF-8" standalone="no"?><svg xmlns="http://www.w3.org/2000/svg" xmlns:xlink="http://www.w3.org/1999/xlink" clip-rule="evenodd" stroke-miterlimit="10" viewBox="0 0 1920 1080"><desc>SVG generated by Keynote</desc><defs></defs><g transform="matrix(1.00, 0.00, -0.00, -1.00, 0.0, 1080.0)"><path d="M 0.0 1080.0 L 1920.0 1080.0 L 1920.0 0.0 L 0.0 0.0 Z M 0.0 1080.0 " fill="#FEFFFF"></path><image xlink:href="3EF610AFB978A8BEF42380EE578F9EC5.jpeg" width="1024.00" height="633.00" transform="matrix(1.90, 0.00, -0.00, -1.90, -15.0, 1180.0)"></image><image xlink:href="3E5BA62AE4D97C077DA3D09A3204939D.png" width="970.00" height="284.00" transform="matrix(1.00, 0.00, -0.00, -1.00, 475.0, 721.0)"></image><text xml:space="preserve" font-family="Helvetica-Light,Helvetica" font-size="59.0" fill="#FEFFFE" transform="matrix(1.00, 0.00, -0.00, -1.00, 752.3, 376.3)">A</text><text xml:space="preserve" font-family="Helvetica-Light,Helvetica" font-size="59.0" fill="#FEFFFE" transform="matrix(1.00, 0.00, -0.00, -1.00, 791.7, 376.3)">s</text><text xml:space="preserve" font-family="Helvetica-Light,Helvetica" font-size="59.0" fill="#FEFFFE" transform="matrix(1.00, 0.00, -0.00, -1.00, 821.2, 376.3)">k</text><text xml:space="preserve" font-family="Helvetica-Light,Helvetica" font-size="59.0" fill="#FEFFFE" transform="matrix(1.00, 0.00, -0.00, -1.00, 850.7, 376.3)"> </text><text xml:space="preserve" font-family="Helvetica-Light,Helvetica" font-size="59.0" fill="#FEFFFE" transform="matrix(1.00, 0.00, -0.00, -1.00, 867.1, 376.3)">A</text><text xml:space="preserve" font-family="Helvetica-Light,Helvetica" font-size="59.0" fill="#FEFFFE" transform="matrix(1.00, 0.00, -0.00, -1.00, 905.4, 376.3)">w</text><text xml:space="preserve" font-family="Helvetica-Light,Helvetica" font-size="59.0" fill="#FEFFFE" transform="matrix(1.00, 0.00, -0.00, -1.00, 948.0, 376.3)">e</text><text xml:space="preserve" font-family="Helvetica-Light,Helvetica" font-size="59.0" fill="#FEFFFE" transform="matrix(1.00, 0.00, -0.00, -1.00, 980.8, 376.3)">s</text><text xml:space="preserve" font-family="Helvetica-Light,Helvetica" font-size="59.0" fill="#FEFFFE" transform="matrix(1.00, 0.00, -0.00, -1.00, 1010.3, 376.3)">o</text><text xml:space="preserve" font-family="Helvetica-Light,Helvetica" font-size="59.0" fill="#FEFFFE" transform="matrix(1.00, 0.00, -0.00, -1.00, 1043.1, 376.3)">m</text><text xml:space="preserve" font-family="Helvetica-Light,Helvetica" font-size="59.0" fill="#FEFFFE" transform="matrix(1.00, 0.00, -0.00, -1.00, 1092.2, 376.3)">e</text><text xml:space="preserve" font-family="Helvetica-Light,Helvetica" font-size="59.0" fill="#FEFFFE" transform="matrix(1.00, 0.00, -0.00, -1.00, 1125.1, 376.3)">l</text><text xml:space="preserve" font-family="Helvetica-Light,Helvetica" font-size="59.0" fill="#FEFFFE" transform="matrix(1.00, 0.00, -0.00, -1.00, 1138.2, 376.3)">y</text><path d="M -2.0 1080.0 L 58.0 1080.0 L 58.0 1012.0 L -2.0 1012.0 Z M -2.0 1080.0 " fill="#FEFFFF"></path><text xml:space="preserve" font-family="HelveticaNeue-Medium,Helvetica Neue" font-size="30.0" fill="#000000" transform="matrix(1.00, 0.00, -0.00, -1.00, 20.7, 1034.4)">1</text></g></svg>